<svg xmlns="http://www.w3.org/2000/svg" viewBox="0 0 640 720" role="img" aria-labelledby="title desc">
  <title id="title">Ansh Billa profile illustration</title>
  <desc id="desc">A modern abstract profile placeholder with a geometric person silhouette.</desc>
  <defs>
    <linearGradient id="background" x1="0" y1="0" x2="1" y2="1"><stop stop-color="#211d35"/><stop offset=".48" stop-color="#151827"/><stop offset="1" stop-color="#0b1622"/></linearGradient>
    <linearGradient id="shirt" x1="0" y1="0" x2="1" y2="1"><stop stop-color="#a78bfa"/><stop offset="1" stop-color="#5eead4"/></linearGradient>
    <linearGradient id="skin" x1="0" y1="0" x2="1" y2="1"><stop stop-color="#fecaca"/><stop offset="1" stop-color="#d69f84"/></linearGradient>
    <filter id="blur"><feGaussianBlur stdDeviation="28"/></filter>
  </defs>
  <rect width="640" height="720" fill="url(#background)"/>
  <circle cx="98" cy="100" r="122" fill="#7c3aed" opacity=".35" filter="url(#blur)"/>
  <circle cx="540" cy="214" r="135" fill="#22d3ee" opacity=".18" filter="url(#blur)"/>
  <path d="M0 575c140-112 238-105 341-47 84 47 172 51 299-35v227H0V575Z" fill="#0c101a" opacity=".64"/>
  <path d="M78 180 247 50l150 59 152 177-75 76-99-41-82 116-183-73-32-184Z" fill="#ffffff" opacity=".035"/>
  <circle cx="331" cy="266" r="118" fill="url(#skin)"/>
  <path d="M213 267c-8-112 55-168 131-168 70 0 127 48 119 165-29-17-52-56-60-87-50 58-112 78-190 90Z" fill="#171522"/>
  <path d="M245 258c22 4 37-9 42-28m82 5c10 19 28 27 47 18" fill="none" stroke="#5f3a35" stroke-width="8" stroke-linecap="round" opacity=".65"/>
  <path d="M289 336c24 18 59 19 83-2" fill="none" stroke="#a65b58" stroke-width="7" stroke-linecap="round"/>
  <path d="M157 720c11-148 77-219 171-219 113 0 182 84 197 219H157Z" fill="url(#shirt)"/>
  <path d="M254 481c13 43 41 65 75 65 36 0 65-23 78-65l-35-28h-85l-33 28Z" fill="url(#skin)"/>
  <path d="m119 681 82-124 97 103-55 60H119Zm403 0-84-124-94 103 53 60h125Z" fill="#111321" opacity=".8"/>
  <path d="M119 681 201 557l48 54-72 109h-58v-39Zm403 0-84-124-47 54 72 109h59v-39Z" fill="#ffffff" opacity=".12"/>
  <circle cx="521" cy="112" r="8" fill="#5eead4"/><circle cx="88" cy="449" r="5" fill="#f0abfc"/><path d="M491 378h63M522 347v63" stroke="#a78bfa" stroke-width="3" opacity=".7"/>
</svg>
