<svg xmlns="http://www.w3.org/2000/svg" viewBox="0 0 1200 720" role="img" aria-labelledby="title"><title id="title">Expense tracker dashboard</title><defs><linearGradient id="bg" x1="0" y1="0" x2="1" y2="1"><stop stop-color="#241227"/><stop offset="1" stop-color="#20122f"/></linearGradient><linearGradient id="bar" x1="0" y1="0" x2="0" y2="1"><stop stop-color="#f9a8d4"/><stop offset="1" stop-color="#a78bfa"/></linearGradient></defs><rect width="1200" height="720" rx="32" fill="url(#bg)"/><rect x="80" y="65" width="1040" height="590" rx="28" fill="#1a1425" stroke="#f0abfc" stroke-opacity=".22"/><text x="135" y="132" fill="#fce7f3" font-family="Arial, sans-serif" font-size="25" font-weight="700">FLOW</text><text x="135" y="162" fill="#c7a8c9" font-family="Arial, sans-serif" font-size="16">Your money, in focus</text><rect x="135" y="215" width="410" height="155" rx="18" fill="#291d38"/><text x="165" y="258" fill="#d8b4fe" font-family="Arial, sans-serif" font-size="15">MONTHLY BALANCE</text><text x="164" y="332" fill="#fff" font-family="Arial, sans-serif" font-size="54" font-weight="700">$4,820</text><path d="M432 320c23-31 47-2 69-37" fill="none" stroke="#5eead4" stroke-width="6" stroke-linecap="round"/><rect x="582" y="215" width="483" height="345" rx="18" fill="#241832"/><text x="617" y="258" fill="#d8b4fe" font-family="Arial, sans-serif" font-size="15">SPENDING OVERVIEW</text><g fill="url(#bar)"><rect x="635" y="412" width="38" height="92" rx="10"/><rect x="713" y="361" width="38" height="143" rx="10"/><rect x="791" y="398" width="38" height="106" rx="10"/><rect x="869" y="314" width="38" height="190" rx="10"/><rect x="947" y="347" width="38" height="157" rx="10"/></g><path d="M623 504h390" stroke="#826893" stroke-width="2"/><g transform="translate(135 420)"><rect width="410" height="140" rx="18" fill="#291d38"/><circle cx="76" cy="70" r="38" fill="none" stroke="#f0abfc" stroke-width="15" stroke-dasharray="147 92" transform="rotate(-80 76 70)"/><text x="142" y="60" fill="#fff" font-family="Arial, sans-serif" font-size="20" font-weight="700">Essentials</text><text x="142" y="91" fill="#c7a8c9" font-family="Arial, sans-serif" font-size="15">54% of spending</text></g></svg>
