<svg xmlns="http://www.w3.org/2000/svg" viewBox="0 0 1200 720" role="img" aria-labelledby="title"><title id="title">Air pollution monitoring dashboard</title><defs><linearGradient id="bg" x1="0" y1="0" x2="1" y2="1"><stop stop-color="#092d34"/><stop offset="1" stop-color="#102033"/></linearGradient><linearGradient id="g" x1="0" y1="0" x2="1" y2="0"><stop stop-color="#5eead4"/><stop offset="1" stop-color="#60a5fa"/></linearGradient></defs><rect width="1200" height="720" rx="32" fill="url(#bg)"/><circle cx="895" cy="177" r="264" fill="#22d3ee" opacity=".08"/><rect x="75" y="70" width="1050" height="580" rx="26" fill="#07151e" stroke="#4fd1c5" stroke-opacity=".24"/><text x="125" y="135" fill="#d1fae5" font-family="Arial, sans-serif" font-size="23" font-weight="700">AIR AWARE</text><text x="125" y="167" fill="#78a9a9" font-family="Arial, sans-serif" font-size="16">Environmental telemetry · live</text><rect x="125" y="212" width="300" height="170" rx="18" fill="#12313a"/><text x="154" y="255" fill="#91cfc5" font-family="Arial, sans-serif" font-size="15">AQI TODAY</text><text x="151" y="337" fill="#fff" font-family="Arial, sans-serif" font-size="77" font-weight="700">42</text><circle cx="366" cy="302" r="27" fill="#5eead4"/><rect x="460" y="212" width="615" height="170" rx="18" fill="#102b35"/><path d="M497 333c44-23 61 7 99-50 32-49 73 33 120-27 46-59 80-19 114-51 30-28 61 52 123 14 33-20 65-55 88-43" fill="none" stroke="url(#g)" stroke-width="8" stroke-linecap="round"/><g fill="#8ee9d8"><circle cx="497" cy="333" r="7"/><circle cx="596" cy="283" r="7"/><circle cx="716" cy="256" r="7"/><circle cx="830" cy="205" r="7"/><circle cx="953" cy="219" r="7"/></g><g transform="translate(125 430)"><rect width="950" height="150" rx="18" fill="#102b35"/><text x="30" y="45" fill="#91cfc5" font-family="Arial, sans-serif" font-size="15">SENSOR NETWORK</text><g fill="#d1fae5"><circle cx="84" cy="95" r="20"/><circle cx="265" cy="95" r="20"/><circle cx="446" cy="95" r="20"/><circle cx="627" cy="95" r="20"/><circle cx="808" cy="95" r="20"/></g><path d="M104 95h141m40 0h141m40 0h141m40 0h141" stroke="#5eead4" stroke-width="4" opacity=".8"/></g></svg>
