<svg xmlns="http://www.w3.org/2000/svg" viewBox="0 0 1200 720" role="img" aria-labelledby="title">
  <title id="title">SmartRahi live bus tracking interface</title>
  <defs><linearGradient id="bg" x1="0" y1="0" x2="1" y2="1"><stop stop-color="#241544"/><stop offset="1" stop-color="#081a2b"/></linearGradient><linearGradient id="route" x1="0" y1="0" x2="1" y2="0"><stop stop-color="#f0abfc"/><stop offset="1" stop-color="#67e8f9"/></linearGradient></defs>
  <rect width="1200" height="720" rx="32" fill="url(#bg)"/><g opacity=".17" stroke="#8ad9ff" stroke-width="2"><path d="M0 116h1200M0 234h1200M0 352h1200M0 470h1200M0 588h1200"/><path d="M160 0v720M360 0v720M560 0v720M760 0v720M960 0v720"/></g>
  <path d="M63 566C202 507 156 339 338 346c159 6 155-192 303-155 185 47 148 271 350 197 83-30 131-116 191-186" fill="none" stroke="url(#route)" stroke-width="13" stroke-linecap="round"/>
  <g fill="#fff"><circle cx="338" cy="346" r="11"/><circle cx="641" cy="191" r="11"/><circle cx="991" cy="388" r="11"/></g>
  <g transform="translate(412 270)"><rect width="155" height="88" rx="18" fill="#0c1429" stroke="#8b5cf6" stroke-width="2"/><rect x="19" y="29" width="117" height="31" rx="10" fill="#a78bfa"/><circle cx="39" cy="73" r="9" fill="#67e8f9"/><circle cx="117" cy="73" r="9" fill="#67e8f9"/></g>
  <rect x="55" y="55" width="278" height="93" rx="18" fill="#11142a" opacity=".86"/><text x="83" y="95" fill="#f5f3ff" font-family="Arial, sans-serif" font-size="24" font-weight="700">SMART RAHI</text><text x="83" y="124" fill="#a5b4fc" font-family="Arial, sans-serif" font-size="17">Live bus intelligence</text>
  <rect x="850" y="502" width="278" height="155" rx="20" fill="#11142a" opacity=".9"/><text x="880" y="548" fill="#a5b4fc" font-family="Arial, sans-serif" font-size="16">NEXT ARRIVAL</text><text x="880" y="603" fill="#fff" font-family="Arial, sans-serif" font-size="46" font-weight="700">04 min</text><circle cx="1080" cy="544" r="16" fill="#5eead4"/>
</svg>
