<svg xmlns="http://www.w3.org/2000/svg" viewBox="0 0 1200 720" role="img" aria-labelledby="title"><title id="title">Weather application interface</title><defs><linearGradient id="bg" x1="0" y1="0" x2="1" y2="1"><stop stop-color="#092b4b"/><stop offset="1" stop-color="#172554"/></linearGradient><linearGradient id="sun" x1="0" y1="0" x2="1" y2="1"><stop stop-color="#fde68a"/><stop offset="1" stop-color="#fb923c"/></linearGradient></defs><rect width="1200" height="720" rx="32" fill="url(#bg)"/><circle cx="260" cy="120" r="168" fill="#38bdf8" opacity=".12"/><path d="M0 525c196-103 299 35 491-50 195-86 348 27 709-101v346H0V525Z" fill="#1e3a8a" opacity=".45"/><rect x="105" y="72" width="990" height="576" rx="30" fill="#0b2341" fill-opacity=".88" stroke="#7dd3fc" stroke-opacity=".25"/><text x="160" y="133" fill="#e0f2fe" font-family="Arial, sans-serif" font-size="23" font-weight="700">WEATHERLY</text><text x="160" y="166" fill="#7cc3e5" font-family="Arial, sans-serif" font-size="16">Bengaluru, India</text><circle cx="305" cy="304" r="79" fill="url(#sun)"/><g stroke="#fef3c7" stroke-width="7" stroke-linecap="round" opacity=".9"><path d="M305 198v-26m0 264v-26m106-106h26m-264 0h26m181-75 19-19m-186 186 19-19m0-167-19-19m186 186-19-19"/></g><text x="460" y="295" fill="#fff" font-family="Arial, sans-serif" font-size="94" font-weight="700">24°</text><text x="465" y="337" fill="#a5d8f3" font-family="Arial, sans-serif" font-size="24">Clear sky</text><g transform="translate(160 447)"><g fill="#10355e"><rect width="146" height="130" rx="18"/><rect x="164" width="146" height="130" rx="18"/><rect x="328" width="146" height="130" rx="18"/><rect x="492" width="146" height="130" rx="18"/><rect x="656" width="146" height="130" rx="18"/></g><g fill="#bfeaff" font-family="Arial, sans-serif" font-size="15" text-anchor="middle"><text x="73" y="35">MON</text><text x="237" y="35">TUE</text><text x="401" y="35">WED</text><text x="565" y="35">THU</text><text x="729" y="35">FRI</text></g><g fill="#fcd34d"><circle cx="73" cy="72" r="19"/><circle cx="237" cy="72" r="19"/><circle cx="401" cy="72" r="19"/><circle cx="565" cy="72" r="19"/><circle cx="729" cy="72" r="19"/></g></g></svg>
